<svg width="66" height="57" viewBox="0 0 66 57" fill="none" xmlns="http://www.w3.org/2000/svg">
<path d="M20.5574 14.4662L21.8134 15.9134L24.3615 13.642V32.8846H49.2113V13.6419L51.7604 15.9141L53.0164 14.467L36.7864 0L20.5574 14.4662ZM43.506 30.9573H30.0668V29.03H43.506V30.9573ZM43.506 27.1027H30.0668V25.1754H43.506V27.1027ZM43.506 23.2481H30.0668V21.3208H43.506V23.2481ZM43.506 19.3935H30.0668V17.4662H43.506V19.3935ZM47.3095 30.9573H45.4077V15.5389H28.1651V30.9573H26.2633V11.9467L36.7864 2.56671L47.3095 11.9467V30.9573Z" fill="#01AC9B"/>
<path d="M11.5833 32.8846C11.7741 32.8846 11.965 32.8099 12.1131 32.6597C12.5938 32.1725 13.3746 32.172 13.8534 32.6589C14.1566 32.9672 14.64 32.9585 14.9331 32.6395C15.2262 32.3204 15.2178 31.8117 14.9146 31.5034C13.8514 30.4223 12.1193 30.4219 11.0534 31.5026C10.7498 31.8105 10.7408 32.3191 11.0334 32.6387C11.1833 32.8024 11.3832 32.8846 11.5833 32.8846V32.8846Z" fill="#01AC9B"/>
<path d="M37.4551 47.9921C37.2478 47.9289 37.0371 47.8646 36.826 47.7985V46.1567C38.2897 45.0217 39.2386 43.2128 39.2386 41.179V39.8153C39.2386 36.3794 36.5426 33.5842 33.2287 33.5842C29.9149 33.5842 27.2188 36.3722 27.2188 39.799V41.179C27.2188 43.2128 28.1677 45.0216 29.6314 46.1567V47.7985C29.4203 47.8646 29.2096 47.9289 29.0023 47.9921C27.621 48.4129 26.1454 48.8628 25.0249 49.8367V45.495C25.0249 45.4898 25.0249 45.4846 25.0249 45.4795C24.9441 40.3708 20.9053 39.2451 17.6601 38.3407C17.2236 38.2191 16.8031 38.1018 16.3978 37.9785V36.2525C19.1754 34.7851 21.0816 31.7964 21.0816 28.3557V24.2075C21.0816 19.3213 17.2376 15.3461 12.5126 15.3461C7.78756 15.3461 3.94349 19.3214 3.94349 24.2075V26.3316V28.3557C3.94349 31.7964 5.84974 34.7852 8.62732 36.2525V37.9786C8.22189 38.1019 7.80094 38.2193 7.36421 38.3411C4.11934 39.2458 0.0809579 40.3716 0.000276937 45.4794C0 45.4845 0 45.4898 0 45.4949V56.0454C0 56.5725 0.413282 57 0.923123 57H8.36756C8.8774 57 9.29068 56.5725 9.29068 56.0454C9.29068 55.5182 8.8774 55.0908 8.36756 55.0908H6.99063V49.1749C6.99063 48.6478 6.57734 48.2203 6.0675 48.2203C5.55766 48.2203 5.14438 48.6478 5.14438 49.1749V55.0908H1.84625V45.503C1.90357 42.0863 4.1511 41.2142 7.8447 40.1844C8.16475 40.0952 8.48996 40.0044 8.81333 39.9097C9.31625 41.5275 10.784 42.7017 12.5124 42.7017C14.2408 42.7017 15.7087 41.5274 16.2115 39.9095C16.5346 40.0041 16.8596 40.0949 17.1794 40.1839C20.8734 41.2135 23.1212 42.0856 23.1785 45.503V55.0908H19.8804V49.1749C19.8804 48.6478 19.4671 48.2203 18.9573 48.2203C18.4474 48.2203 18.0341 48.6478 18.0341 49.1749V55.0908H16.6572C16.1474 55.0908 15.7341 55.5182 15.7341 56.0454C15.7341 56.5725 16.1474 57 16.6572 57H42.3556C42.8653 57 43.2787 56.5725 43.2787 56.0454V54.4787C43.2787 54.4734 43.2787 54.4683 43.2786 54.4631C43.2042 49.7437 40.1499 48.813 37.4551 47.9921V47.9921ZM12.5124 17.2553C16.2194 17.2553 19.2352 20.374 19.2352 24.2074V25.2719C17.6977 25.0873 16.5358 24.799 15.6457 23.593C15.3478 23.1891 14.7959 23.0975 14.3905 23.3843C11.88 25.1615 8.47122 25.4784 5.78964 25.3755V24.2073C5.78955 20.374 8.8054 17.2553 12.5124 17.2553V17.2553ZM5.78955 28.3557V27.286C8.52227 27.382 11.9534 27.0649 14.7394 25.4103C16.0211 26.7063 17.5798 27.0055 19.2352 27.1932V28.3558C19.2352 31.2226 17.5481 33.6893 15.1469 34.7512C15.128 34.7586 15.1095 34.7665 15.0912 34.7751C14.2966 35.1177 13.4257 35.3078 12.5125 35.3078C11.5993 35.3078 10.7284 35.1178 9.93391 34.7752C9.91554 34.7665 9.8968 34.7585 9.87779 34.7511C7.47656 33.6891 5.78955 31.2224 5.78955 28.3557V28.3557ZM12.5124 40.7926C11.3881 40.7926 10.4735 39.8455 10.4735 38.6815V36.9627C11.1272 37.1283 11.81 37.2168 12.5124 37.2168C13.2149 37.2168 13.8976 37.1283 14.5514 36.9627V38.6814C14.5514 39.8455 13.6367 40.7926 12.5124 40.7926ZM33.2286 35.4933C35.2656 35.4933 36.9643 37.0198 37.322 39.0283C36.0606 38.3971 34.6548 38.059 33.2286 38.059C31.8015 38.059 30.3948 38.3976 29.1328 39.0296C29.4847 37.0214 31.1868 35.4933 33.2286 35.4933ZM29.067 41.2638C31.545 39.5491 34.9121 39.5491 37.3903 41.2638C37.3463 43.6004 35.497 45.4875 33.2286 45.4875C30.9603 45.4875 29.111 43.6004 29.067 41.2638ZM34.9797 47.1267V48.4959C34.9797 49.69 34.0341 50.2337 33.1554 50.2337C32.2302 50.2337 31.4775 49.4542 31.4775 48.4959V47.1267C32.0318 47.3018 32.6197 47.3967 33.2286 47.3967C33.8376 47.3966 34.4254 47.3017 34.9797 47.1267ZM41.4324 55.0908H25.0248V54.4868C25.0795 51.1774 26.848 50.6387 29.5239 49.8234C29.6279 49.7917 29.7329 49.7597 29.8385 49.7273C30.3276 51.134 31.6296 52.1428 33.1554 52.1428C34.8078 52.1428 36.1387 51.1646 36.6256 49.7295C36.7289 49.7612 36.8315 49.7925 36.9332 49.8235C39.609 50.6387 41.3775 51.1778 41.4324 54.4866V55.0908H41.4324Z" fill="#01AC9B"/>
<path d="M61.7477 34.3817V31.7977C61.748 30.8708 61.1651 30.0695 60.3341 29.7719V27.0238C60.3341 26.6283 60.0176 26.3077 59.6272 26.3077C59.2369 26.3077 58.9204 26.6283 58.9204 27.0238V29.6494H54.6795V27.0238C54.6795 26.6283 54.363 26.3077 53.9727 26.3077C53.5824 26.3077 53.2659 26.6283 53.2659 27.0238V29.7723C52.4206 30.075 51.852 30.8848 51.8522 31.7977V34.389C48.9996 37.6049 47.4785 41.8156 47.615 46.1423C47.6245 46.4405 47.8136 46.7 48.0923 46.7968C53.7381 48.7579 59.8682 48.758 65.5144 46.7968C65.793 46.7 65.9823 46.4404 65.9916 46.1422C66.1275 41.8164 64.6082 37.6024 61.7477 34.3817ZM53.2659 31.7977C53.2662 31.4699 53.4805 31.2025 53.7623 31.1137C53.8791 31.0769 53.9829 31.0816 53.9727 31.0816C54.1148 31.0816 58.8723 31.0816 59.6272 31.0816C60.019 31.082 60.3339 31.4021 60.3341 31.7977V33.9459C60.2575 33.9459 53.3424 33.9459 53.2659 33.9459V31.7977H53.2659ZM49.0203 45.5998C49.0222 41.8311 50.3934 38.1915 52.8751 35.3781H53.6114C52.3038 38.7278 51.7791 42.681 51.8601 46.3444C50.9036 46.1525 49.9555 45.9042 49.0203 45.5998ZM60.3258 46.5869C57.9876 46.918 55.6226 46.9185 53.2809 46.5869C53.1674 42.9013 53.6977 38.7572 55.141 35.3781H58.4656C59.8934 38.7209 60.441 42.8426 60.3258 46.5869ZM61.7465 46.3444C61.8275 42.6814 61.302 38.7262 59.9952 35.3781H60.7315V35.3781C63.2132 38.1915 64.5844 41.831 64.5862 45.5999C63.6511 45.9042 62.7029 46.1525 61.7465 46.3444Z" fill="#01AC9B"/>
</svg>
