<svg width="58" height="66" viewBox="0 0 58 66" fill="none" xmlns="http://www.w3.org/2000/svg">
<path d="M44.0554 24.2661V16.5C44.0565 13.7142 42.2816 11.3061 39.7511 10.4116V2.15222C39.7511 0.963703 38.7875 0 37.5989 0C36.4103 0 35.4467 0.963574 35.4467 2.15222V10.0435H22.5336V2.15222C22.5336 0.963574 21.5701 0 20.3815 0C19.193 0 18.2293 0.963574 18.2293 2.15222V10.4129C15.6557 11.3226 13.9244 13.7564 13.925 16.5V24.2883C5.23892 33.9534 0.607579 46.6086 1.02317 59.6122C1.05192 60.5085 1.62787 61.2885 2.47633 61.5793C19.6673 67.4734 38.3325 67.4738 55.5246 61.5793C56.3728 61.2885 56.9491 60.5082 56.9776 59.6119C57.3914 46.6111 52.7652 33.9459 44.0554 24.2661ZM18.2293 16.5C18.2304 15.515 18.8829 14.7112 19.7407 14.4442C20.0967 14.3337 20.4126 14.3478 20.3815 14.3478C20.8143 14.3478 35.3001 14.3478 37.5989 14.3478C38.7918 14.3489 39.7505 15.3112 39.7511 16.5V22.9565C39.5181 22.9565 18.4623 22.9565 18.2295 22.9565V16.5H18.2293ZM5.30209 57.9819C5.30789 46.655 9.4829 35.7166 17.0395 27.261H19.2815C15.3001 37.3284 13.7021 49.2096 13.9489 60.2198C11.0366 59.6429 8.1495 58.8966 5.30209 57.9819ZM39.7259 60.9487C32.6065 61.9437 25.4051 61.9453 18.275 60.9487C17.9296 49.8716 19.5442 37.4167 23.9388 27.2608H34.0618C38.4092 37.3077 40.0767 49.6953 39.7259 60.9487ZM44.0518 60.2198C44.2985 49.2107 42.6984 37.3234 38.7192 27.261H40.9612V27.2608C48.5178 35.7163 52.6928 46.6549 52.6983 57.982C49.8511 58.8969 46.9639 59.643 44.0518 60.2198Z" fill="#01AC9B"/>
</svg>
