<svg width="66" height="50" viewBox="0 0 66 50" fill="none" xmlns="http://www.w3.org/2000/svg">
<path d="M49.8466 31.6176C45.2593 31.6176 41.5273 35.5758 41.5273 40.4412C41.5273 45.3066 45.2593 49.2647 49.8466 49.2647C54.4347 49.2647 58.1659 45.3066 58.1659 40.4412C58.1659 35.5758 54.434 31.6176 49.8466 31.6176ZM49.8466 44.8529C47.5526 44.8529 45.687 42.8742 45.687 40.4412C45.687 38.0081 47.5526 36.0294 49.8466 36.0294C52.1406 36.0294 54.0063 38.0081 54.0063 40.4412C54.0063 42.8744 52.1406 44.8529 49.8466 44.8529Z" fill="#01AC9B"/>
<path d="M21.4223 31.6176C16.835 31.6176 13.103 35.5758 13.103 40.4412C13.103 45.3066 16.835 49.2647 21.4223 49.2647C26.0096 49.2647 29.7416 45.3066 29.7416 40.4412C29.7416 35.5758 26.0096 31.6176 21.4223 31.6176ZM21.4223 44.8529C19.1283 44.8529 17.2627 42.8742 17.2627 40.4412C17.2627 38.0081 19.1283 36.0294 21.4223 36.0294C23.7157 36.0294 25.5819 38.0081 25.5819 40.4412C25.5819 42.8744 23.7163 44.8529 21.4223 44.8529Z" fill="#01AC9B"/>
<path d="M55.4494 6.3619C55.0958 5.61706 54.3769 5.14716 53.5907 5.14716H42.637V9.55893H52.3081L57.9714 21.506L61.6887 19.5235L55.4494 6.3619Z" fill="#01AC9B"/>
<path d="M43.6061 38.3089H27.8689V42.7207H43.6061V38.3089Z" fill="#01AC9B"/>
<path d="M15.1832 38.3089H7.97331C6.82451 38.3089 5.89355 39.2964 5.89355 40.5147C5.89355 41.7332 6.82464 42.7205 7.97331 42.7205H15.1834C16.3322 42.7205 17.2631 41.733 17.2631 40.5147C17.2631 39.2963 16.332 38.3089 15.1832 38.3089Z" fill="#01AC9B"/>
<path d="M65.5633 24.8235L61.4724 19.2352C61.0794 18.6969 60.4727 18.3822 59.83 18.3822H44.7167V2.94105C44.7167 1.72261 43.7856 0.735229 42.6369 0.735229H7.97331C6.82451 0.735229 5.89355 1.72275 5.89355 2.94105C5.89355 4.15935 6.82464 5.14687 7.97331 5.14687H40.557V20.588C40.557 21.8065 41.4881 22.7939 42.6368 22.7939H58.8115L61.8404 26.9321V38.3086H56.0862C54.9374 38.3086 54.0065 39.2961 54.0065 40.5144C54.0065 41.7328 54.9376 42.7202 56.0862 42.7202H63.9202C65.069 42.7202 65.9999 41.7327 66.0001 40.5144V26.1764C66.0001 25.6867 65.8462 25.2102 65.5633 24.8235Z" fill="#01AC9B"/>
<path d="M15.0438 27.1324H5.47661C4.3278 27.1324 3.39685 28.1199 3.39685 29.3382C3.39685 30.5566 4.32793 31.544 5.47661 31.544H15.0437C16.1925 31.544 17.1234 30.5565 17.1234 29.3382C17.1236 28.1199 16.1925 27.1324 15.0438 27.1324Z" fill="#01AC9B"/>
<path d="M19.8275 18.4559H2.07975C0.931082 18.4559 0 19.4434 0 20.6618C0 21.8803 0.931082 22.8677 2.07975 22.8677H19.8275C20.9763 22.8677 21.9073 21.8801 21.9073 20.6618C21.9073 19.4435 20.9763 18.4559 19.8275 18.4559Z" fill="#01AC9B"/>
<path d="M23.2244 9.77936H5.47661C4.3278 9.77936 3.39685 10.7669 3.39685 11.9852C3.39685 13.2036 4.32793 14.191 5.47661 14.191H23.2244C24.3732 14.191 25.3041 13.2035 25.3041 11.9852C25.3043 10.7669 24.3732 9.77936 23.2244 9.77936Z" fill="#01AC9B"/>
</svg>
