<svg width="66" height="66" viewBox="0 0 66 66" fill="none" xmlns="http://www.w3.org/2000/svg">
<path d="M33.1288 0.00409506C21.5919 -0.0780182 12.4718 8.05893 10.3325 18.1484C8.75865 25.5711 10.698 33.0232 15.6535 38.5939C18.0756 41.3169 19.4647 44.9581 19.4647 48.594V52.4612C19.4647 55.0352 21.1505 57.2218 23.4756 57.9781C24.2612 62.5256 28.2315 65.9964 32.9999 65.9964C37.7682 65.9964 41.7387 62.5256 42.5241 57.9781C44.8492 57.222 46.535 55.0353 46.535 52.4612V48.594C46.535 45.0027 47.9654 41.3112 50.4592 38.466C54.1632 34.2403 56.203 28.8186 56.203 23.1995C56.203 10.5088 46.0026 0.0957474 33.1288 0.00409506ZM32.9999 62.1292C30.479 62.1292 28.3284 60.4999 27.5304 58.2491H38.4692C37.6713 60.4999 35.5207 62.1292 32.9999 62.1292ZM42.6678 52.4612C42.6678 53.5274 41.8004 54.3948 40.7342 54.3948H25.2655C24.1993 54.3948 23.3319 53.5274 23.3319 52.4612V50.5276H42.6678V52.4612ZM31.0663 30.9339H29.1327C25.9341 30.9339 23.3319 28.3316 23.3319 25.1331V23.1995H25.2655C28.464 23.1995 31.0663 25.8017 31.0663 29.0003V30.9339ZM47.5509 35.917C44.8899 38.9529 43.202 42.7832 42.7749 46.6604H34.9335V34.801H36.867C42.198 34.801 46.535 30.464 46.535 25.1331V21.2659C46.535 20.198 45.6693 19.3323 44.6014 19.3323H40.7342C37.575 19.3323 34.7652 20.8557 32.9999 23.2062C31.2345 20.8557 28.4247 19.3323 25.2655 19.3323H21.3983C20.3304 19.3323 19.4647 20.198 19.4647 21.2659V25.1331C19.4647 30.464 23.8018 34.801 29.1327 34.801H31.0663V46.6604H23.2294C22.8148 42.7573 21.158 38.9636 18.5429 36.0236C14.4131 31.381 12.7993 25.1581 14.1156 18.9506C15.8707 10.6729 23.4158 3.78711 33.1288 3.87231C43.8877 3.9668 52.3358 12.6604 52.3358 23.1995C52.3358 27.8803 50.6366 32.3968 47.5509 35.917ZM34.9335 30.9339V29.0003C34.9335 25.8017 37.5357 23.1995 40.7342 23.1995H42.6678V25.1331C42.6678 28.3316 40.0656 30.9339 36.867 30.9339H34.9335Z" fill="#01AC9B"/>
<path d="M5.80078 23.1995H1.93359C0.865734 23.1995 0 24.0653 0 25.1331C0 26.2011 0.865734 27.0667 1.93359 27.0667H5.80078C6.86864 27.0667 7.73438 26.201 7.73438 25.1331C7.73438 24.0653 6.86864 23.1995 5.80078 23.1995Z" fill="#01AC9B"/>
<path d="M6.60161 13.5315L3.86712 10.7971C3.11212 10.0419 1.8879 10.0419 1.13263 10.7971C0.377501 11.5522 0.377501 12.7764 1.13263 13.5315L3.86712 16.266C4.62213 17.021 5.84635 17.0213 6.60161 16.266C7.35674 15.5109 7.35674 14.2867 6.60161 13.5315Z" fill="#01AC9B"/>
<path d="M6.60188 34.0003C5.84675 33.245 4.62252 33.245 3.86739 34.0002L1.1329 36.7348C0.377899 37.4899 0.377899 38.7141 1.1329 39.4693C1.88791 40.2244 3.11226 40.2244 3.86739 39.4693L6.60188 36.7348C7.35688 35.9797 7.35688 34.7554 6.60188 34.0003Z" fill="#01AC9B"/>
<path d="M64.0664 23.1995H60.1992C59.1314 23.1995 58.2656 24.0653 58.2656 25.1331C58.2656 26.2011 59.1314 27.0667 60.1992 27.0667H64.0664C65.1343 27.0667 66 26.201 66 25.1331C66 24.0653 65.1343 23.1995 64.0664 23.1995Z" fill="#01AC9B"/>
<path d="M64.8672 10.7971C64.1122 10.0419 62.8879 10.0419 62.1328 10.7971L59.3983 13.5315C58.6431 14.2867 58.6431 15.5109 59.3983 16.266C60.1534 17.0212 61.3776 17.0213 62.1328 16.266L64.8672 13.5315C65.6224 12.7764 65.6224 11.5522 64.8672 10.7971Z" fill="#01AC9B"/>
<path d="M64.8672 36.7347L62.1328 34.0002C61.3776 33.2451 60.1535 33.2451 59.3983 34.0002C58.6431 34.7553 58.6431 35.9795 59.3983 36.7347L62.1328 39.4692C62.8878 40.2242 64.112 40.2244 64.8672 39.4692C65.6224 38.714 65.6224 37.4898 64.8672 36.7347Z" fill="#01AC9B"/>
</svg>
