<?xml version="1.0" encoding="UTF-8" standalone="no"?>
<svg
   xmlns:dc="http://purl.org/dc/elements/1.1/"
   xmlns:cc="http://creativecommons.org/ns#"
   xmlns:rdf="http://www.w3.org/1999/02/22-rdf-syntax-ns#"
   xmlns:svg="http://www.w3.org/2000/svg"
   xmlns="http://www.w3.org/2000/svg"
   viewBox="0 0 5333.3335 5333.3335"
   height="5333.3335"
   width="5333.3335"
   xml:space="preserve"
   id="svg2"
   version="1.1"><metadata
     id="metadata8"><rdf:RDF><cc:Work
         rdf:about=""><dc:format>image/svg+xml</dc:format><dc:type
           rdf:resource="http://purl.org/dc/dcmitype/StillImage" /></cc:Work></rdf:RDF></metadata><defs
     id="defs6"><clipPath
       id="clipPath24"
       clipPathUnits="userSpaceOnUse"><path
         id="path22"
         d="m 33600,11986.3 c 0,-3084.5 -2502.1,-5586.7 -5586.8,-5586.7 H 11986.8 C 8901.02,6399.6 6400,8901.8 6400,11986.3 V 28012 c 0,3085.8 2501.02,5588.4 5586.8,5588.4 h 16026.4 c 3084.7,0 5586.8,-2502.6 5586.8,-5588.4 z" /></clipPath><radialGradient
       id="radialGradient38"
       spreadMethod="pad"
       gradientTransform="matrix(36044.2,0,0,-36044.2,14367.6,4293.2)"
       gradientUnits="userSpaceOnUse"
       r="1"
       cy="0"
       cx="0"
       fy="0"
       fx="0"><stop
         id="stop28"
         offset="0"
         style="stop-opacity:1;stop-color:#fbd55e" /><stop
         id="stop30"
         offset="0.0969388"
         style="stop-opacity:1;stop-color:#fbd55e" /><stop
         id="stop32"
         offset="0.44898"
         style="stop-opacity:1;stop-color:#e4464f" /><stop
         id="stop34"
         offset="0.678571"
         style="stop-opacity:1;stop-color:#cd1995" /><stop
         id="stop36"
         offset="1"
         style="stop-opacity:1;stop-color:#615db4" /></radialGradient></defs><g
     transform="matrix(1.3333333,0,0,-1.3333333,0,5333.3333)"
     id="g10"><g
       transform="scale(0.1)"
       id="g12"><g
         transform="scale(2.45399)"
         id="g14"><path
           id="path16"
           style="fill:#ffffff;fill-opacity:1;fill-rule:evenodd;stroke:none"
           d="M 16300,0 H 0 V 16300 H 16300 V 0" /></g><g
         id="g18"><g
           clip-path="url(#clipPath24)"
           id="g20"><g
             transform="scale(2.06137)"
             id="g26"><path
               id="path40"
               style="fill:url(#radialGradient38);fill-opacity:1;fill-rule:nonzero;stroke:none"
               d="m 16299.8,5814.72 c 0,-1496.34 -1213.8,-2710.19 -2710.2,-2710.19 H 5814.96 c -1496.95,0 -2710.23,1213.85 -2710.23,2710.19 V 13589 c 0,1497 1213.28,2711 2710.23,2711 h 7774.64 c 1496.4,0 2710.2,-1214 2710.2,-2711 V 5814.72" /></g></g></g><g
         transform="scale(1.85624)"
         id="g42"><path
           id="path44"
           style="fill:#000000;fill-opacity:1;fill-rule:nonzero;stroke:none"
           d="m 15239.3,9060.72 c 0,-1519.89 -1232.2,-2751.25 -2751.1,-2751.25 H 9060.78 c -1519.74,0 -2751.58,1231.36 -2751.58,2751.25 v 3427.48 c 0,1518.9 1231.84,2751.3 2751.58,2751.3 h 3427.42 c 1518.9,0 2751.1,-1232.4 2751.1,-2751.3 z M 12895.2,16300 H 8653.83 c -1880.74,0 -3405.09,-1524.5 -3405.09,-3405.3 V 8653.56 c 0,-1880.25 1524.35,-3404.57 3405.09,-3404.57 h 4241.37 c 1880.6,0 3404.8,1524.32 3404.8,3404.57 v 4241.14 c 0,1880.8 -1524.2,3405.3 -3404.8,3405.3" /></g><g
         transform="scale(1.57534)"
         id="g46"><path
           id="path48"
           style="fill:#000000;fill-opacity:1;fill-rule:nonzero;stroke:none"
           d="m 12870.2,10609.5 c -1140.6,0 -2064,924.3 -2064,2063.4 0,1140.5 923.4,2063.7 2064,2063.7 1139.4,0 2063.4,-923.2 2063.4,-2063.7 0,-1139.1 -924,-2063.4 -2063.4,-2063.4 z m 0,5493.1 c -1894.8,0 -3430.29,-1535 -3430.29,-3429.7 0,-1893.6 1535.49,-3429.77 3430.29,-3429.77 1894.1,0 3429.8,1536.17 3429.8,3429.77 0,1894.7 -1535.7,3429.7 -3429.8,3429.7" /></g><g
         transform="scale(1.64579)"
         id="g50"><path
           id="path52"
           style="fill:#000000;fill-opacity:1;fill-rule:nonzero;stroke:none"
           d="m 16210,15464.7 c 0,-461.2 -374.5,-834.8 -835.1,-834.8 -461.1,0 -834.5,373.6 -834.5,834.8 0,460.8 373.4,835.3 834.5,835.3 460.6,0 835.1,-374.5 835.1,-835.3" /></g></g></g></svg>