<svg width="22" height="22" viewBox="0 0 22 22" fill="none" xmlns="http://www.w3.org/2000/svg">
<path d="M21.0833 11.8977H0.916667C0.410665 11.8977 0 11.487 0 10.981C0 10.475 0.410665 10.0643 0.916667 10.0643H21.0833C21.5893 10.0643 22 10.475 22 10.981C22 11.487 21.5893 11.8977 21.0833 11.8977Z" fill="black"/>
<path d="M21.0833 4.86983H0.916667C0.410665 4.86983 0 4.45917 0 3.95317C0 3.44716 0.410665 3.0365 0.916667 3.0365H21.0833C21.5893 3.0365 22 3.44716 22 3.95317C22 4.45917 21.5893 4.86983 21.0833 4.86983Z" fill="black"/>
<path d="M21.0833 18.9253H0.916667C0.410665 18.9253 0 18.5146 0 18.0086C0 17.5026 0.410665 17.0919 0.916667 17.0919H21.0833C21.5893 17.0919 22 17.5026 22 18.0086C22 18.5146 21.5893 18.9253 21.0833 18.9253Z" fill="black"/>
</svg>
