<svg width="131" height="131" viewBox="0 0 131 131" fill="none" xmlns="http://www.w3.org/2000/svg">
<path d="M65.5 131C101.675 131 131 101.675 131 65.5001C131 29.3254 101.675 0 65.5 0C29.3253 0 0 29.3254 0 65.5001C0 101.675 29.3253 131 65.5 131Z" fill="#F3E1D5"/>
<path opacity="0.8" d="M55.5596 94.8689C53.879 94.8689 52.26 94.1926 51.0508 93.0039L30.9458 72.8989C28.466 70.4191 28.466 66.3817 30.9458 63.8813C33.4256 61.4015 37.463 61.4015 39.9633 63.8813L55.2522 79.1702L90.7485 38.3043C93.0644 35.6401 97.0812 35.3736 99.725 37.669C102.389 39.9849 102.656 44.0018 100.36 46.6456L60.3758 92.676C59.2076 94.0081 57.5476 94.8074 55.785 94.8689C55.7031 94.8689 55.6416 94.8689 55.5596 94.8689Z" fill="#DC7653"/>
</svg>
